<?xml version="1.0" encoding="utf-8"?>
<!-- Generator: Adobe Illustrator 27.5.0, SVG Export Plug-In . SVG Version: 6.00 Build 0)  -->
<svg version="1.1" id="Capa_1" xmlns="http://www.w3.org/2000/svg" xmlns:xlink="http://www.w3.org/1999/xlink" x="0px" y="0px"
	 viewBox="0 0 1975 2279" style="enable-background:new 0 0 1975 2279;" xml:space="preserve">
<g>
	<path style="fill:#E07B59;" d="M1512.905,2126.753c0,0-14.757-402.54-75.617-667.705c5.737-7.594,11.441-15.198,17.049-22.829
		c-13.205-52.518-27.112-101.209-39.98-135.204c-0.051-0.134-0.102-0.271-0.152-0.405c-1.102-2.902-2.196-5.693-3.281-8.372
		c-0.075-0.184-0.15-0.365-0.224-0.548c-1.089-2.674-2.168-5.245-3.238-7.678c-0.029-0.066-0.058-0.128-0.086-0.193
		c-2.14-4.86-4.239-9.209-6.289-13.02c-0.116-0.218-0.234-0.443-0.352-0.658c-0.947-1.734-1.882-3.34-2.805-4.831
		c-0.154-0.25-0.309-0.494-0.464-0.737c-0.913-1.437-1.816-2.766-2.705-3.951c-0.127-0.17-0.251-0.32-0.379-0.484
		c-0.925-1.2-1.841-2.297-2.739-3.208c-1.785-1.811-3.762-3.567-5.821-5.296c-0.505-0.425-1.017-0.847-1.538-1.267
		c-2.103-1.696-4.287-3.365-6.623-4.981c-0.043-0.031-0.092-0.059-0.136-0.09c-2.324-1.603-4.785-3.154-7.307-4.678
		c-0.615-0.371-1.23-0.741-1.855-1.107c-2.59-1.52-5.241-3.013-7.999-4.454c-0.083-0.043-0.17-0.084-0.252-0.128
		c-2.718-1.415-5.525-2.781-8.374-4.12c-0.67-0.315-1.339-0.629-2.015-0.939c-2.943-1.352-5.924-2.676-8.965-3.949
		c-0.075-0.031-0.151-0.06-0.225-0.091c-3.012-1.258-6.07-2.465-9.148-3.645c-0.661-0.253-1.317-0.505-1.979-0.755
		c-3.155-1.189-6.324-2.347-9.508-3.456c-0.012-0.004-0.025-0.009-0.037-0.013c0,0-0.001,0-0.001,0.001
		c-46.631-16.225-94.875-23.912-94.875-23.912l-112.054-55.529c3.832,0,7.665,0.002,11.497,0c3.318-0.002,7.231,0.625,10.411-0.304
		c2.465-0.724,4.976-2.81,7.529-3.708c4.839-1.697,8.18-1.529,13.114,0.39c7.16,2.787,13.974,6.716,21.5,8.599
		c7.047,1.763,10.255-3.028,13.908-8.038c3.81-5.226,7.125-8.11,13.518-9.689c7.018-1.733,14.524,2.674,21.58,0.666
		c5.966-1.696,4.569-8.472,6.811-13.209c1.946-4.111,5.604-7.233,10.005-8.055c7.393-1.385,14.172,2.621,21.531,0.671
		c10.469-2.772,15.787-7.155,18.022-18.128c1.313-6.445,1.916-10.446,8.488-12.631c6.565-2.185,13.913-2.393,20.675-4.21
		c7.509-2.017,11.57-7.587,17.934-11.182c3.05-1.725,4.803-1.651,8.225-1.62c5.683,0.053,10.77-1.155,16.337-2.166
		c11.782-2.137,14.014-6.896,15.778-18.391c0.719-4.703,0.7-9.073,1.116-13.719c0.371-4.143,1.907-5.295,4.828-8.177
		c5.35-5.283,12.328-9.152,18.427-13.575c9.949-7.212,24.034-11.105,24.245-25.747c0.082-5.671-2.855-17.447,1.694-21.494
		c6.684-5.944,17.697-6.349,24.984-12.004c4.327-3.356,6.644-6.759,8.353-11.929c1.45-4.38,0.726-8.618,1.85-12.931
		c2.249-8.637,12.975-9.392,19.097-14.055c8.984-6.838,5.344-19.167,5.035-28.681c-0.314-9.599-0.199-18.897,2.146-28.236
		c2.386-9.503,6.292-18.036,6.726-28.035c0.416-9.603-2.7-19.112-2.028-28.543c0.708-9.891,11.276-15.93,15.67-24.323
		c5.728-10.945,7.679-24.355,3.497-36.104c-2.764-7.77-9.195-15.147-8.632-23.794c0.72-11.06,8.3-21.467,10.293-32.446
		c2.02-11.134,2.588-19.985-3.054-30.289c-3.092-5.645-9.779-11.055-10.794-17.629c-0.511-3.316,1.897-8.424,2.055-11.86
		c0.237-5.185-0.093-10.477-0.092-15.672c0.008-9.646,3.367-25.706-3.497-33.584c-3.179-3.649-2.767-3.682-3.407-8.419
		c-1.361-10.087-5.19-19.762-6.745-29.817c-2.291-14.814-1.47-30.825-5.373-45.312c-3.386-12.569-11.904-20.181-21.251-28.221
		c-5.777-4.97-12.623-10.525-15.733-17.675c-5.378-12.363-6.004-26.058-12.169-38.103c-2.283-4.464-4.68-10.772-8.688-14.076
		c-3.326-2.739-6.782-2.652-10.619-3.9c-11.774-3.833-14.059-19.196-18.732-28.712c-5.024-10.231-10.947-21.602-20.01-28.773
		c-6.592-5.216-14.886-8.534-20.808-14.627c-7.404-7.622-8.347-19.644-12.04-29.161c-3.802-9.804-11.06-20.094-21.461-23.072
		c-8.886-2.544-16.613-6.356-22.437-13.798c-6.699-8.561-8.877-18.676-18.545-24.714c-10.489-6.55-22.815-9.181-33.66-15.336
		c-4.05-2.297-8.766-4.497-12.535-7.281c-4.509-3.33-7.553-7.779-12.479-10.71c-7.977-4.747-15.147-2.585-23.612-1.512
		c-11.285,1.43-19.681-4.996-29.463-9.811c-3.972-1.955-8.486-4.675-13.149-3.639c-2.297,0.51-4.261,2.518-6.489,3.059
		c-9.155,2.23-18.823-6.79-27.933-8.206c-9.679-1.505-16.057,4.957-25.19,5.208c-11.676,0.326-21.986-7.23-32.599-10.935
		c-6.282-2.192-10.14-0.438-14.366,1.679c-2.43-0.534-4.891-0.987-7.307-1.876c-5.647-2.075-9.033-6.397-15.747-4.622
		c-3.527,0.935-7.219,3.483-10.985,5.427c-4.228-1.586-8.47-3.089-12.855-3.683c-2.678-0.366-6.718-0.879-10.096-0.568
		c-3.378-0.311-7.417,0.202-10.098,0.568c-4.384,0.594-8.626,2.097-12.854,3.683c-3.766-1.943-7.458-4.492-10.983-5.427
		c-6.713-1.775-10.102,2.547-15.749,4.622c-2.416,0.889-4.877,1.342-7.307,1.876c-4.226-2.118-8.086-3.872-14.369-1.679
		c-10.61,3.704-20.921,11.26-32.599,10.935c-9.13-0.251-15.508-6.713-25.187-5.208c-9.112,1.416-18.778,10.436-27.935,8.206
		c-2.226-0.541-4.192-2.549-6.488-3.059c-4.661-1.035-9.175,1.684-13.147,3.639c-9.783,4.816-18.179,11.242-29.461,9.811
		c-8.468-1.073-15.638-3.235-23.615,1.512c-4.926,2.93-7.968,7.38-12.481,10.71c-3.768,2.785-8.483,4.984-12.534,7.281
		c-10.845,6.155-23.171,8.786-33.66,15.336c-9.667,6.038-11.846,16.153-18.544,24.714c-5.825,7.442-13.552,11.254-22.438,13.798
		c-10.4,2.978-17.658,13.269-21.46,23.072c-3.692,9.517-4.636,21.539-12.042,29.161c-5.917,6.093-14.214,9.411-20.805,14.627
		c-9.064,7.171-14.989,18.542-20.01,28.773c-4.672,9.516-6.958,24.879-18.732,28.712c-3.836,1.249-7.293,1.162-10.618,3.9
		c-4.009,3.304-6.405,9.612-8.688,14.076c-6.165,12.044-6.791,25.74-12.169,38.103c-3.11,7.15-9.957,12.705-15.733,17.675
		c-9.347,8.041-17.864,15.653-21.25,28.221c-3.903,14.486-3.082,30.497-5.373,45.312c-1.557,10.056-5.384,19.73-6.744,29.817
		c-0.64,4.737-0.228,4.77-3.407,8.419c-6.863,7.878-3.505,23.938-3.498,33.584c0.003,5.195-0.327,10.487-0.09,15.672
		c0.155,3.436,2.565,8.544,2.052,11.86c-1.011,6.574-7.699,11.984-10.791,17.629c-5.642,10.304-5.074,19.155-3.053,30.289
		c1.991,10.978,9.572,21.386,10.292,32.446c0.563,8.647-5.868,16.024-8.633,23.794c-4.181,11.749-2.233,25.159,3.497,36.104
		c4.395,8.393,14.962,14.432,15.669,24.323c0.674,9.43-2.443,18.94-2.027,28.543c0.434,9.998,4.34,18.532,6.725,28.035
		c2.346,9.339,2.461,18.637,2.15,28.236c-0.311,9.514-3.953,21.844,5.032,28.681c6.12,4.662,16.848,5.417,19.096,14.055
		c1.124,4.313,0.4,8.551,1.848,12.931c1.711,5.17,4.029,8.572,8.353,11.929c7.289,5.654,18.302,6.06,24.985,12.004
		c4.551,4.047,1.614,15.823,1.696,21.494c0.212,14.642,14.296,18.535,24.245,25.747c6.1,4.423,13.079,8.292,18.427,13.575
		c2.917,2.883,4.457,4.035,4.829,8.177c0.415,4.646,0.394,9.016,1.117,13.719c1.764,11.496,3.993,16.254,15.775,18.391
		c5.568,1.011,10.657,2.219,16.338,2.166c3.424-0.031,5.172-0.106,8.225,1.62c6.364,3.594,10.428,9.164,17.936,11.182
		c6.759,1.816,14.107,2.025,20.672,4.21c6.57,2.185,7.178,6.187,8.489,12.631c2.235,10.973,7.549,15.356,18.022,18.128
		c7.358,1.95,14.136-2.056,21.531-0.671c4.401,0.822,8.06,3.943,10.005,8.055c2.243,4.737,0.845,11.512,6.811,13.209
		c7.059,2.008,14.562-2.398,21.581-0.666c6.393,1.579,9.708,4.464,13.518,9.689c3.653,5.01,6.864,9.801,13.908,8.038
		c7.526-1.883,14.342-5.812,21.5-8.599c4.934-1.919,8.276-2.087,13.112-0.39c2.556,0.898,5.064,2.985,7.532,3.708
		c3.179,0.93,7.093,0.302,10.408,0.304c4.106,0.002,8.211,0,12.318,0c-1.93,5.618-3.31,8.666-3.31,8.666l-137.777,46.863
		c0,0-74.426,19.779-116.895,62.88c-17.714,17.977-41.142,93.572-62.693,179.289c5.609,7.631,11.313,15.234,17.049,22.828
		c-60.861,265.166-75.618,667.706-75.618,667.706h172.566l7.548-263.686c1.991,14.445,3.954,28.101,5.623,38.656
		c0.002,0,0.003,0.001,0.005,0.001c17.162,118.945,34.944,225.029,34.944,225.029h600.081c0,0,18.838-102.559,34.086-223.088
		l6.386,223.088H1512.905z"/>
	<path style="fill:#E03F38;" d="M1454.337,1436.219c-12.052-47.93-24.685-92.634-36.582-125.927
		c0.003-0.005,0.005-0.011,0.008-0.016c-0.146-0.412-0.292-0.784-0.438-1.191c-0.994-2.761-1.984-5.473-2.967-8.07
		c-0.051-0.134-0.102-0.271-0.152-0.405c-1.102-2.902-2.196-5.693-3.281-8.372c-0.075-0.184-0.15-0.365-0.224-0.548
		c-1.089-2.675-2.168-5.243-3.238-7.678c-0.029-0.066-0.058-0.128-0.086-0.193c-2.14-4.862-4.239-9.206-6.289-13.02
		c-0.116-0.218-0.234-0.443-0.352-0.658c-0.946-1.735-1.882-3.339-2.805-4.831c-0.154-0.25-0.309-0.494-0.464-0.737
		c-0.913-1.438-1.816-2.766-2.705-3.951c-0.127-0.17-0.251-0.32-0.379-0.484c-0.925-1.201-1.841-2.297-2.739-3.208
		c-1.785-1.811-3.763-3.567-5.821-5.296c-0.505-0.425-1.017-0.847-1.538-1.267c-2.103-1.696-4.287-3.365-6.623-4.981
		c-0.043-0.031-0.092-0.059-0.136-0.09c-2.324-1.603-4.785-3.154-7.307-4.678c-0.615-0.371-1.23-0.741-1.855-1.107
		c-2.59-1.52-5.243-3.013-7.999-4.454c-0.083-0.043-0.17-0.084-0.252-0.128c-2.718-1.415-5.525-2.781-8.374-4.12
		c-0.67-0.315-1.339-0.629-2.015-0.939c-2.943-1.352-5.924-2.677-8.965-3.949c-0.075-0.031-0.151-0.06-0.225-0.091
		c-3.011-1.257-6.071-2.465-9.148-3.645c-0.661-0.253-1.317-0.505-1.979-0.755c-3.153-1.188-6.325-2.348-9.508-3.456
		c-0.012-0.004-0.025-0.009-0.037-0.013c0,0-0.001,0-0.001,0.001c-46.631-16.225-94.875-23.912-94.875-23.912l-223.15,339.156
		L717.256,1194.05c0,0-74.426,19.779-116.895,62.88c-17.714,17.977-41.142,93.572-62.693,179.289
		c5.609,7.631,11.313,15.234,17.049,22.828c29.775,39.41,60.958,78.45,90.603,118.298c-6.289,46.515-9.629,85.331-7.604,107.275
		c2.474,26.797,5.864,57.033,9.789,88.791c-0.002,0-0.002,0.001-0.002,0.001s0.027,0.214,0.065,0.523
		c0.284,2.286,1.589,12.72,3.433,27.115c2.234,17.425,5.253,40.578,8.21,62.016c1.991,14.445,3.954,28.101,5.623,38.656
		c0.002,0,0.003,0.001,0.005,0.001c17.162,118.945,34.944,225.029,34.944,225.029h600.081c0,0,18.838-102.559,34.086-223.088
		c12.631-99.827,22.8-211.981,17.765-288.402c-0.837-12.712-2.24-25.815-4.094-39.171c29.365-39.413,60.201-78.048,89.664-117.044
		C1443.025,1451.454,1448.728,1443.85,1454.337,1436.219z"/>
	<path style="fill:#21141A;" d="M1496.8,706.17c0.72-11.06,8.3-21.467,10.293-32.446c2.02-11.134,2.588-19.985-3.054-30.289
		c-3.092-5.645-9.779-11.055-10.794-17.629c-0.511-3.316,1.897-8.424,2.055-11.86c0.237-5.185-0.093-10.477-0.092-15.672
		c0.008-9.646,3.367-25.706-3.497-33.584c-3.179-3.649-2.767-3.682-3.407-8.419c-1.361-10.087-5.19-19.762-6.745-29.817
		c-2.291-14.814-1.47-30.825-5.373-45.312c-3.386-12.569-11.904-20.181-21.251-28.221c-5.777-4.97-12.623-10.525-15.733-17.675
		c-5.378-12.363-6.004-26.058-12.169-38.103c-2.283-4.464-4.68-10.772-8.688-14.076c-3.326-2.739-6.782-2.652-10.619-3.9
		c-11.774-3.833-14.059-19.196-18.732-28.712c-5.024-10.231-10.947-21.602-20.01-28.773c-6.592-5.216-14.886-8.534-20.808-14.627
		c-7.404-7.622-8.347-19.644-12.04-29.161c-3.802-9.804-11.06-20.094-21.461-23.072c-8.886-2.544-16.613-6.356-22.437-13.798
		c-6.699-8.561-8.877-18.676-18.545-24.714c-10.489-6.55-22.815-9.181-33.66-15.336c-4.05-2.297-8.766-4.497-12.535-7.281
		c-4.509-3.33-7.553-7.779-12.479-10.71c-7.977-4.747-15.147-2.585-23.612-1.512c-11.285,1.43-19.681-4.996-29.463-9.811
		c-3.972-1.955-8.486-4.675-13.149-3.639c-2.297,0.51-4.261,2.518-6.489,3.059c-9.155,2.23-18.823-6.79-27.933-8.206
		c-9.679-1.505-16.057,4.957-25.19,5.208c-11.676,0.326-21.986-7.23-32.599-10.935c-6.282-2.192-10.14-0.438-14.366,1.679
		c-2.43-0.534-4.891-0.987-7.307-1.876c-5.647-2.075-9.033-6.397-15.747-4.622c-3.527,0.935-7.219,3.483-10.985,5.427
		c-4.228-1.586-8.47-3.089-12.855-3.683c-2.678-0.366-6.718-0.879-10.096-0.568c-3.378-0.311-7.417,0.202-10.098,0.568
		c-4.384,0.594-8.626,2.097-12.854,3.683c-3.766-1.943-7.458-4.492-10.983-5.427c-6.713-1.775-10.102,2.547-15.749,4.622
		c-2.416,0.889-4.877,1.342-7.307,1.876c-4.226-2.118-8.086-3.872-14.369-1.679c-10.61,3.704-20.921,11.26-32.599,10.935
		c-9.13-0.251-15.508-6.713-25.187-5.208c-9.112,1.416-18.778,10.436-27.935,8.206c-2.226-0.541-4.192-2.549-6.488-3.059
		c-4.661-1.035-9.175,1.684-13.147,3.639c-9.783,4.816-18.179,11.242-29.461,9.811c-8.468-1.073-15.638-3.235-23.615,1.512
		c-4.926,2.93-7.968,7.38-12.481,10.71c-3.768,2.785-8.483,4.984-12.534,7.281c-10.845,6.155-23.171,8.786-33.66,15.336
		c-9.667,6.038-11.846,16.153-18.544,24.714c-5.825,7.442-13.552,11.254-22.438,13.798c-10.4,2.978-17.658,13.269-21.46,23.072
		c-3.692,9.517-4.636,21.539-12.042,29.161c-5.917,6.093-14.214,9.411-20.805,14.627c-9.064,7.171-14.989,18.542-20.01,28.773
		c-4.672,9.516-6.958,24.879-18.732,28.712c-3.836,1.249-7.293,1.162-10.618,3.9c-4.009,3.304-6.405,9.612-8.688,14.076
		c-6.165,12.044-6.791,25.74-12.169,38.103c-3.11,7.15-9.957,12.705-15.733,17.675c-9.347,8.041-17.864,15.653-21.25,28.221
		c-3.903,14.486-3.082,30.497-5.373,45.312c-1.557,10.056-5.384,19.73-6.744,29.817c-0.64,4.737-0.228,4.77-3.407,8.419
		c-6.863,7.878-3.505,23.938-3.498,33.584c0.003,5.195-0.327,10.487-0.09,15.672c0.155,3.436,2.565,8.544,2.052,11.86
		c-1.011,6.574-7.699,11.984-10.791,17.629c-5.642,10.304-5.074,19.155-3.053,30.289c1.991,10.978,9.572,21.386,10.292,32.446
		c0.563,8.647-5.868,16.024-8.633,23.794c-4.181,11.749-2.233,25.159,3.497,36.104c4.395,8.393,14.962,14.432,15.669,24.323
		c0.674,9.43-2.443,18.94-2.027,28.543c0.434,9.998,4.34,18.532,6.725,28.035c2.346,9.339,2.461,18.637,2.15,28.236
		c-0.311,9.514-3.953,21.844,5.032,28.681c6.12,4.662,16.848,5.417,19.096,14.055c1.124,4.313,0.4,8.551,1.848,12.931
		c1.711,5.17,4.029,8.572,8.353,11.929c7.289,5.654,18.302,6.06,24.985,12.004c4.551,4.047,1.614,15.823,1.696,21.494
		c0.212,14.642,14.296,18.535,24.245,25.747c6.1,4.423,13.079,8.292,18.427,13.575c2.917,2.883,4.457,4.035,4.829,8.177
		c0.415,4.646,0.394,9.016,1.117,13.719c1.764,11.496,3.993,16.254,15.775,18.391c5.568,1.011,10.657,2.219,16.338,2.166
		c3.424-0.031,5.172-0.106,8.225,1.62c6.364,3.594,10.428,9.164,17.936,11.182c6.759,1.816,14.107,2.025,20.672,4.21
		c6.57,2.185,7.178,6.187,8.489,12.631c2.235,10.973,7.549,15.356,18.022,18.128c7.358,1.95,14.136-2.056,21.531-0.671
		c4.401,0.822,8.06,3.943,10.005,8.055c2.243,4.737,0.845,11.512,6.811,13.209c7.059,2.008,14.562-2.398,21.581-0.666
		c6.393,1.579,9.708,4.464,13.518,9.689c3.653,5.01,6.864,9.801,13.908,8.038c7.526-1.883,14.342-5.812,21.5-8.599
		c4.934-1.919,8.276-2.087,13.112-0.39c2.556,0.898,5.064,2.985,7.532,3.708c3.179,0.93,7.093,0.302,10.408,0.304
		c4.106,0.002,8.211,0,12.318,0c2.131-6.21,4.927-15.608,7.294-27.534c5.453-27.474,8.528-68.49-4.313-115.724
		c-59.732-38.866-93.764-111.299-99.326-208.207c-3.289,1.453-6.713,2.405-10.204,2.63c-22.902,1.486-44.831-14.076-50.139-44.683
		c-0.644-3.708-1.079-7.299-1.391-10.804c4.846-0.093,9.986,0.596,13.736-2.756c1.363-1.219,2.156-3.226,3.832-4.136
		c2.289-1.244,4.769-0.208,7.201,0.076c3.238,0.378,5.185,0.251,7.035-2.352c1.123-1.578,1.474-4.046,3.271-5.175
		c0.04-0.025,0.075-0.027,0.114-0.049c2.532-1.485,4.581,0.628,6.395-0.846c0.406-0.329,0.803-0.777,1.187-1.553
		c0.844-1.706,1.311-4.733,3.432-5.583c1.171-0.469,2.987-0.147,4.223-0.115c0.483,0.013,0.944,0.043,1.385,0.063
		c1.949,5.679,3.921,10.959,6.628,14.597c0.267-0.048,0.504-0.055,0.774-0.107c5.118-6.798,8.29-15.061,10.215-25.342
		c0.019-0.003,0.037-0.001,0.054-0.004c3.175-0.602,4.184-4.144,7.031-4.905c1.46-0.39,2.818,0.099,4.304-0.416
		c0.912-0.317,2.123-0.905,2.878-1.477c0.438-0.332,0.738-1.043,1.223-1.289c0.964-0.489,1.875-0.004,2.822-0.637
		c0.784-0.524,0.933-1.555,1.877-1.947c0.874-0.361,1.991,0.345,2.819-0.188c0.915-0.588,0.669-2.063,1.116-2.813
		c0.752-1.262,1.238-0.667,2.388-1.383c0.639-0.399,1.094-1.206,1.684-1.68c0.595-0.477,1.466-0.713,2.007-1.165
		c2.237-1.87,0.848-4.786,4.308-5.882c1.19-0.377,2.045-0.135,3.026-1.072c0.749-0.713,1.048-1.677,1.433-2.593
		c0.899-2.144,1.596-4.335,2.577-6.443c1.102-2.366,2.014-4.921,2.471-7.485c0.428-2.403-0.598-5.495,0.114-7.728
		c0.481-1.511,0.411-1.077,1.79-2.132c1.947-1.489,1.757-3.23,1.781-5.452c0.034-3.223-0.123-6.309,0.566-9.482
		c0.485-2.235,1.865-2.301,3.186-3.836c2.012-2.337,1.747-5.706,1.257-8.953c35.481-7.693,56.134,2.652,59.367,1.227
		c16.84-7.417,18.31-23.012,1.818-31.701c-1.974-1.057-33.95-3.385-60.014,4.056c0.107-0.083,0.175-0.129,0.313-0.245
		c1.231-1.049,1.894-1.469,2.282-2.95c0.475-1.824-0.322-4.01-0.109-5.898c0.158-1.393,0.624-2.913,1.02-4.268
		c0.288-0.98,0.79-2.271,1.586-3.001c0.997-0.914,2.217-0.777,3.364-1.33c3.624-1.75,2.882-6.995,3.572-10.259
		c0.94-4.453,4.212-2.258,7.62-3.715c4.877-2.084,3.683-8.955,3.83-12.872c0.077-2.054,0.289-4.896,1.818-6.465
		c1.226-1.257,3.492-1.887,5.196-2.373c2.016-0.576,4.589-1.006,6.423-1.991c1.716-0.922,2.083-2.103,2.623-3.818
		c1.072-3.409-0.645-7.682,0.729-10.838c1.683-3.863,4.737-2.971,8.134-3.398c3.14-0.396,4.039-2.524,3.995-5.252
		c-0.072-4.308-1.214-9.979,3.007-12.972c3.402-2.412,8.06-1.071,11.849-1.682c5.915-0.952,7.734-6.699,7.889-11.583
		c0.132-4.185,0.344-10.068,4.961-12.309c3.114-1.512,7.075-0.743,10.136-2.516c4.158-2.408,3.773-8.67,4.757-12.582
		c1.188-4.733,3.959-7.841,8.977-9.077c3.408-0.839,7.276-1.321,8.591-4.88c0.764-2.067,1.341-4.679,1.728-6.849
		c0.433-2.419-0.123-4.827,0.219-7.232c0.618-4.367,3.256-6.456,7.417-7.96c3.343-1.21,6.407-1.142,9.918-1.174
		c2.093-0.019,3.48-0.405,5.177-1.652c2.995-2.199,2.633-4.31,2.764-7.518c0.315-7.739,12.302-1.546,15.817-5.461
		c0.646-0.721,1.034-1.528,1.302-2.372c2.046,0.699,4.177,1.234,5.602,3.088c1.442,1.877,0.792,4.672,0.792,6.934
		c0,3.246-0.608,6.934,1.714,9.604c3.514,4.04,15.502-2.348,15.817,5.634c0.131,3.308-0.232,5.485,2.763,7.753
		c1.697,1.285,3.084,1.684,5.177,1.703c3.511,0.033,6.575-0.036,9.917,1.211c4.161,1.552,6.799,3.706,7.418,8.21
		c0.341,2.48-0.215,4.964,0.218,7.458c0.388,2.238,0.965,4.932,1.728,7.064c1.315,3.671,5.183,4.168,8.591,5.033
		c5.019,1.274,7.79,4.48,8.978,9.361c0.984,4.035,0.599,10.493,4.757,12.977c3.062,1.829,7.022,1.036,10.136,2.595
		c4.617,2.312,4.829,8.378,4.963,12.694c0.155,5.037,1.973,10.965,7.889,11.946c3.789,0.629,8.448-0.753,11.848,1.734
		c4.221,3.087,3.079,8.936,3.006,13.379c-0.045,2.813,0.855,5.009,3.995,5.417c3.397,0.441,6.452-0.48,8.134,3.505
		c1.374,3.255-0.343,7.662,0.729,11.177c0.54,1.768,0.907,2.987,2.623,3.937c1.834,1.016,4.407,1.46,6.423,2.053
		c1.704,0.502,3.969,1.152,5.196,2.448c1.53,1.619,1.741,4.549,1.818,6.667c0.147,4.041-1.048,11.127,3.83,13.276
		c3.41,1.502,6.68-0.761,7.62,3.832c0.69,3.367-0.052,8.777,3.573,10.581c1.145,0.57,2.365,0.429,3.362,1.372
		c0.795,0.753,1.298,2.084,1.586,3.095c0.05,0.177,0.101,0.372,0.152,0.554c-24.973-18.777-78.526-15.235-81.1-13.857
		c-16.491,8.689-15.02,24.284,1.82,31.701c3.871,1.706,32.743-13.414,82.132,5.734c-0.382,1.577-0.622,3.158-0.361,4.75
		c0.365,2.234,1.176,1.347,2.227,2.729c0.779,1.025,0.494,2.37,0.496,3.647c0.009,4.432-2.679,11.108,0.572,15.003
		c1.321,1.583,2.7,1.651,3.185,3.956c0.69,3.273,0.533,6.455,0.567,9.779c0.024,2.292-0.166,4.087,1.78,5.623
		c1.379,1.088,1.309,0.64,1.79,2.198c0.712,2.304-0.314,5.491,0.114,7.971c0.457,2.644,1.368,5.279,2.47,7.719
		c0.981,2.174,1.678,4.434,2.578,6.645c0.384,0.944,0.684,1.939,1.432,2.674c0.982,0.966,1.837,0.717,3.026,1.106
		c3.46,1.13,2.071,4.138,4.308,6.066c0.541,0.467,1.412,0.71,2.007,1.202c0.59,0.488,1.044,1.321,1.684,1.733
		c1.15,0.738,1.635,0.124,2.387,1.426c0.448,0.774,0.202,2.295,1.116,2.902c0.828,0.549,1.945-0.18,2.819,0.193
		c0.945,0.404,1.094,1.467,1.877,2.008c0.695,0.479,1.369,0.341,2.059,0.43c1.326,4.318,3.112,7.706,5.525,10.013
		c1.699-1.512,3.125-3.606,4.394-6.087c2.261,1.173,3.427,4.084,6.282,4.642c1.88,0.367,3.843-0.271,5.745,0.164
		c0.081,0.018,0.146,0.056,0.228,0.077c2.298,0.591,3.943,1.941,5.015,4.001c0.15,0.29,0.292,0.64,0.436,0.977
		c0.733,1.724,1.426,3.88,2.652,4.994c1.46,1.328,3.04,0.972,4.981,0.919c1.236-0.033,3.052-0.366,4.224,0.118
		c2.052,0.849,2.559,3.782,3.356,5.565c0.026,0.059,0.048,0.138,0.076,0.194c0.742,1.547,1.522,2.046,2.352,2.163
		c1.553,0.22,3.289-0.971,5.345,0.362c1.796,1.164,2.149,3.71,3.271,5.337c1.85,2.684,3.797,2.815,7.035,2.425
		c0.481-0.058,0.963-0.156,1.445-0.25c-7.761,24.422-27.396,36.718-47.84,35.392c-1.669-0.108-3.319-0.407-4.952-0.814
		c-0.624,7.1-1.378,14.288-2.248,21.339c-0.184,1.494-0.384,2.953-0.577,4.431c-0.141,1.131-0.293,2.253-0.441,3.379
		c-0.299,2.204-0.61,4.355-0.924,6.5c-0.362,2.481-0.729,4.957-1.129,7.408c-2.434,15.291-5.125,28.281-7.443,35.489
		c0,0.001,0,0.001-0.001,0.002c-0.859,3.283-1.79,6.504-2.733,9.713c-0.033,0.109-0.062,0.22-0.093,0.329c0,0,0,0-0.001,0
		c-13.514,45.747-35.746,83.833-68.777,110.172c-8.698,51.252-5.381,95.589-1.423,122.478c2.548,17.313,5.346,27.427,5.346,27.427
		l1.981,0.981c3.832,0,7.665,0.002,11.497,0c3.318-0.002,7.231,0.625,10.411-0.304c2.465-0.724,4.976-2.81,7.529-3.708
		c4.839-1.697,8.18-1.529,13.114,0.39c7.16,2.787,13.974,6.716,21.5,8.599c7.047,1.763,10.255-3.028,13.908-8.038
		c3.81-5.226,7.125-8.11,13.518-9.689c7.018-1.733,14.524,2.674,21.58,0.666c5.966-1.696,4.569-8.472,6.811-13.209
		c1.946-4.111,5.604-7.233,10.005-8.055c7.393-1.385,14.172,2.621,21.531,0.671c10.469-2.772,15.787-7.155,18.022-18.128
		c1.313-6.445,1.916-10.446,8.488-12.631c6.565-2.185,13.913-2.393,20.675-4.21c7.509-2.017,11.57-7.587,17.934-11.182
		c3.05-1.725,4.803-1.651,8.225-1.62c5.683,0.053,10.77-1.155,16.337-2.166c11.782-2.137,14.014-6.896,15.778-18.391
		c0.719-4.703,0.7-9.073,1.116-13.719c0.371-4.143,1.907-5.295,4.828-8.177c5.35-5.283,12.328-9.152,18.427-13.575
		c9.949-7.212,24.034-11.105,24.245-25.747c0.082-5.671-2.855-17.447,1.694-21.494c6.684-5.944,17.697-6.349,24.984-12.004
		c4.327-3.356,6.644-6.759,8.353-11.929c1.45-4.38,0.726-8.618,1.85-12.931c2.249-8.637,12.975-9.392,19.097-14.055
		c8.984-6.838,5.344-19.167,5.035-28.681c-0.314-9.599-0.199-18.897,2.146-28.236c2.386-9.503,6.292-18.036,6.726-28.035
		c0.416-9.603-2.7-19.112-2.028-28.543c0.708-9.891,11.276-15.93,15.67-24.323c5.728-10.945,7.679-24.355,3.497-36.104
		C1502.668,722.194,1496.237,714.817,1496.8,706.17z"/>
	<polygon style="fill:#AA201F;" points="670.649,1423.7 640.009,1474.75 645.324,1577.325 645.324,1577.333 701.58,1372.166 	"/>
	<polygon style="fill:#AA201F;" points="908.599,1723.322 1001.833,1758.302 1129.222,1709.33 	"/>
	<polygon style="fill:#AA201F;" points="1302.175,1391.743 1290.425,1372.166 1346.68,1577.333 1346.98,1571.546 1351.995,1474.75 	
		"/>
	<path style="fill:#C15B3F;" d="M1096.615,995.254c-30.314,20.573-68.714,32.209-116.612,32.209
		c-41.856,0-78.064-8.987-108.322-25.919c19.306,30.193,49.998,63.325,94.468,71.16
		C1043.49,1065.302,1079.746,1026.644,1096.615,995.254z"/>
	<path style="fill:#C15B3F;" d="M735.455,719.807c2.334,7.629,4.094,16.284,5.3,24.121c-0.334-0.282-0.608-0.599-0.97-0.861
		c-1.999-1.454-4.529-2.569-7.426-2.567c-3.629-0.008-7.377,1.765-10.921,5.334c-1.251,1.252-1.251,3.28,0.002,4.531
		c1.251,1.25,3.28,1.25,4.531-0.002h-0.001c2.819-2.795,4.872-3.45,6.39-3.458c1.237,0.002,2.423,0.454,3.67,1.35
		c1.856,1.325,3.598,3.649,4.757,5.641c0.586,0.994,1.039,1.898,1.338,2.539l0.334,0.744l0.077,0.185l0.016,0.039
		c0.581,1.485,2.171,2.317,3.723,1.949c1.551-0.368,2.597-1.827,2.449-3.414c-0.797-8.49-2.533-20.682-5.435-32.028
		c-0.435-1.695-0.95-3.307-1.438-4.949C740.035,720.435,737.987,718.322,735.455,719.807z"/>
	<path style="fill:#C15B3F;" d="M1224.739,744.257c-0.027-0.056-0.049-0.135-0.076-0.194c-2.928-2.344-5.944-3.57-8.886-3.564
		c-2.899-0.002-5.43,1.113-7.428,2.567c-0.349,0.255-0.644,0.548-0.967,0.822c0.567-3.686,1.253-7.548,2.069-11.422
		c-0.144-0.337-0.286-0.687-0.436-0.977c-1.072-2.06-2.717-3.41-5.015-4.001c-2.388,10.279-3.857,20.834-4.584,28.449
		c-0.149,1.588,0.899,3.047,2.451,3.414c1.552,0.368,3.141-0.465,3.722-1.951l0.034-0.084c0.216-0.538,1.484-3.438,3.444-5.989
		c0.974-1.277,2.113-2.452,3.27-3.235c1.17-0.789,2.274-1.185,3.44-1.188c1.518,0.008,3.572,0.663,6.394,3.458
		c1.251,1.251,3.279,1.251,4.53,0c1.078-1.078,1.17-2.706,0.39-3.943C1226.261,746.303,1225.481,745.804,1224.739,744.257z"/>
	<path style="fill:#21141A;" d="M855.155,704.349c10.294-0.079,18.537-10.123,18.379-22.322
		c-0.054-12.288-8.463-22.143-18.799-22.136c-10.059,0.123-18.345,10.091-18.202,22.506
		C836.644,694.567,845.047,704.469,855.155,704.349z"/>
	<path style="fill:#21141A;" d="M1092.94,704.284c10.005-0.078,18.342-10.113,18.19-22.363c-0.056-12.263-8.563-22.076-18.689-22.03
		c-10.316,0.032-18.463,10.057-18.354,22.278C1074.139,694.506,1082.497,704.38,1092.94,704.284z"/>
	<path style="fill:#C15B3F;" d="M962.092,779.33h-0.002c6.504,3.453,15.002,4.634,23.448,4.655
		c6.622-0.002,13.191-0.772,18.675-2.037c2.745-0.636,5.216-1.391,7.327-2.279c2.112-0.905,3.87-1.872,5.269-3.309
		c1.221-1.28,1.172-3.307-0.107-4.528c-1.28-1.221-3.307-1.173-4.527,0.107c-0.335,0.379-1.468,1.147-3.12,1.827
		c-4.994,2.129-14.361,3.834-23.517,3.813c-7.798,0.022-15.529-1.237-20.421-3.895c-1.56-0.835-3.5-0.249-4.336,1.31
		C959.946,776.554,960.532,778.495,962.092,779.33z"/>
	<path style="fill:#C15B3F;" d="M979.268,904.305c6.622-0.002,13.191-0.772,18.676-2.037c2.745-0.635,5.216-1.392,7.327-2.279
		c2.111-0.905,3.871-1.872,5.269-3.309c1.22-1.279,1.173-3.306-0.106-4.527c-1.278-1.221-3.305-1.175-4.526,0.104
		c-0.336,0.379-1.469,1.148-3.122,1.827c-4.996,2.129-14.362,3.836-23.518,3.814c-7.796,0.021-15.529-1.238-20.421-3.895
		c-1.56-0.835-3.5-0.249-4.336,1.31c-0.834,1.559-0.249,3.5,1.311,4.336l-0.001-0.001
		C962.324,903.103,970.821,904.283,979.268,904.305z"/>
	<path style="fill:#C15B3F;" d="M1003.444,726.427c1.529-0.89,2.048-2.851,1.157-4.379h-0.001
		c-10.883-18.665-14.488-40.476-14.477-56.818c0-5.97,0.477-11.208,1.218-15.226c0.369-2.006,0.803-3.708,1.252-5.011
		c0.437-1.3,0.925-2.207,1.184-2.529c1.074-1.405,0.806-3.415-0.598-4.489c-1.405-1.075-3.415-0.807-4.489,0.597
		c-0.923,1.221-1.565,2.64-2.158,4.344c-1.722,5.072-2.803,12.83-2.815,22.315c0.011,17.242,3.71,40.015,15.346,60.039
		C999.955,726.799,1001.915,727.317,1003.444,726.427z"/>
	<path style="fill:#E17757;" d="M1187.774,747.508c-0.043-3.021-0.071-5.997-0.11-9c-14.944-10.564-33.777-16.926-54.302-16.926
		c-24.252,0-46.207,8.796-62.098,23.018c-15.893,14.222-25.721,33.869-25.721,55.571c0,21.699,9.828,41.346,25.719,55.567
		c15.892,14.223,37.848,23.021,62.1,23.021c14.165,0,27.488-3.117,39.281-8.494c0.932-3.002,1.841-6.021,2.684-9.099
		c3.287-9.627,7.161-30.04,9.82-52.071C1187.806,787.05,1189.243,763.465,1187.774,747.508z"/>
	<path style="fill:#E27355;" d="M1182.884,752.687c-0.091-2.699-0.168-5.356-0.26-8.035c-13.523-9.645-30.62-15.458-49.263-15.458
		c-21.903,0-41.732,7.944-56.084,20.789c-14.353,12.845-23.23,30.589-23.23,50.189c0,19.597,8.875,37.339,23.225,50.184
		c14.354,12.847,34.184,20.793,56.09,20.793c13.076,0,25.352-2.976,36.12-8.08c0.883-2.688,1.742-5.394,2.54-8.155
		c3.208-8.801,6.797-27.138,9.124-46.934C1183.474,788.158,1184.52,767.031,1182.884,752.687z"/>
	<path style="fill:#E36E53;" d="M1177.994,757.866c-0.135-2.377-0.264-4.717-0.408-7.071c-12.104-8.725-27.464-13.991-44.224-13.991
		c-19.555,0-37.257,7.093-50.072,18.56c-12.814,11.467-20.738,27.309-20.738,44.808c0,17.494,7.922,33.333,20.732,44.8
		c12.814,11.471,30.521,18.566,50.078,18.566c11.989,0,23.218-2.834,32.958-7.667c0.835-2.373,1.645-4.766,2.397-7.21
		c3.131-7.975,6.435-24.238,8.43-41.798C1179.141,789.265,1179.797,770.597,1177.994,757.866z"/>
	<path style="fill:#E56951;" d="M1173.103,763.044c-0.181-2.056-0.361-4.076-0.557-6.106c-10.683-7.805-24.308-12.524-39.185-12.524
		c-17.206,0-32.782,6.241-44.056,16.331c-11.276,10.09-18.249,24.03-18.249,39.427c0,15.392,6.969,29.327,18.239,39.417
		c11.277,10.095,26.857,16.339,44.067,16.339c10.901,0,21.083-2.692,29.797-7.253c0.786-2.059,1.546-4.139,2.251-6.265
		c3.055-7.148,6.073-21.336,7.735-36.66C1174.808,790.372,1175.075,774.164,1173.103,763.044z"/>
	<path style="fill:#E6654F;" d="M1168.213,768.224c-0.228-1.734-0.458-3.437-0.708-5.143c-9.26-6.884-21.151-11.056-34.144-11.056
		c-14.858,0-28.308,5.389-38.043,14.102c-9.737,8.713-15.758,20.75-15.758,34.045c0,13.289,6.017,25.321,15.746,34.033
		c9.737,8.718,23.193,14.112,38.055,14.112c9.813,0,18.948-2.55,26.635-6.84c0.738-1.744,1.448-3.511,2.109-5.32
		c2.977-6.322,5.71-18.435,7.041-31.523C1170.475,791.479,1170.352,777.729,1168.213,768.224z"/>
	<path style="fill:#E7604D;" d="M1163.323,773.402c-0.273-1.412-0.555-2.796-0.855-4.178c-7.842-5.964-17.995-9.589-29.106-9.589
		c-12.509,0-23.833,4.538-32.03,11.873c-8.197,7.336-13.267,17.469-13.267,28.664c0,11.187,5.065,21.315,13.254,28.65
		c8.197,7.343,19.527,11.885,32.043,11.885c8.726,0,16.813-2.407,23.473-6.426c0.69-1.43,1.351-2.884,1.965-4.376
		c2.9-5.496,5.347-15.534,6.345-26.386C1166.143,792.586,1165.628,781.296,1163.323,773.402z"/>
	<path style="fill:#E85B4C;" d="M1158.432,778.581c-0.319-1.091-0.651-2.156-1.005-3.214c-6.42-5.045-14.838-8.121-24.066-8.121
		c-10.161,0-19.359,3.685-26.017,9.644c-6.657,5.959-10.776,14.19-10.776,23.283c0,9.084,4.111,17.309,10.76,23.266
		c6.66,5.967,15.865,9.658,26.033,9.658c7.637,0,14.677-2.265,20.312-6.012c0.641-1.116,1.252-2.257,1.822-3.432
		c2.821-4.669,4.985-12.632,5.649-21.249C1161.809,793.693,1160.905,784.862,1158.432,778.581z"/>
	<path style="fill:#E9564A;" d="M1153.543,783.759c-0.365-0.769-0.75-1.517-1.154-2.249c-5.001-4.124-11.682-6.653-19.027-6.653
		c-7.812,0-14.884,2.833-20.002,7.415c-5.12,4.581-8.286,10.909-8.286,17.9c0,6.981,3.159,13.303,8.268,17.883
		c5.12,4.591,12.199,7.431,20.02,7.431c6.55,0,12.543-2.124,17.15-5.599c0.592-0.801,1.154-1.629,1.677-2.487
		c2.745-3.843,4.622-9.731,4.955-16.112C1157.477,794.8,1156.182,788.428,1153.543,783.759z"/>
	<path style="fill:#EA5048;" d="M1133.361,782.467c-5.464,0-10.409,1.982-13.989,5.185c-3.58,3.204-5.795,7.63-5.795,12.519
		c0,9.776,8.858,17.703,19.784,17.703c5.463,0,10.408-1.982,13.988-5.185c3.58-3.204,5.795-7.63,5.795-12.518
		c0-4.889-2.215-9.315-5.795-12.519C1143.77,784.449,1138.824,782.467,1133.361,782.467z"/>
	<path style="fill:#E17757;" d="M882.666,744.601c-15.893-14.222-37.847-23.018-62.098-23.018c-20.526,0-39.36,6.361-54.302,16.926
		c-0.041,3.003-0.068,5.979-0.112,9c-1.469,15.956-0.033,39.542,2.629,61.586c2.66,22.15,6.637,42.661,10.072,52.312
		c0.87,3.083,1.808,6.105,2.768,9.106c11.745,5.228,24.937,8.246,38.945,8.246c24.25,0,46.205-8.796,62.098-23.018
		c15.891-14.222,25.721-33.869,25.721-55.569C908.387,778.47,898.557,758.823,882.666,744.601z"/>
	<path style="fill:#E27355;" d="M876.653,749.983c-14.354-12.845-34.182-20.789-56.084-20.789c-18.643,0-35.741,5.814-49.264,15.458
		c-0.091,2.679-0.17,5.336-0.259,8.035c-1.637,14.344-0.59,35.471,1.737,55.293c2.327,20.033,6.123,38.566,9.631,47.417
		c0.85,2.77,1.766,5.48,2.708,8.167c10.668,4.809,22.683,7.586,35.447,7.586c21.902,0,41.73-7.945,56.084-20.789
		c14.353-12.845,23.23-30.589,23.23-50.188C899.883,780.572,891.005,762.827,876.653,749.983z"/>
	<path style="fill:#E36E53;" d="M870.638,755.364c-12.814-11.467-30.517-18.56-50.07-18.56c-16.76,0-32.122,5.266-44.224,13.991
		c-0.145,2.354-0.274,4.693-0.409,7.071c-1.803,12.731-1.146,31.399,0.849,48.998c1.995,17.917,5.609,34.472,9.188,42.521
		c0.833,2.457,1.727,4.857,2.651,7.228c9.592,4.389,20.428,6.925,31.947,6.925c19.553,0,37.256-7.093,50.07-18.56
		c12.814-11.467,20.74-27.309,20.74-44.806C891.378,782.673,883.452,766.832,870.638,755.364z"/>
	<path style="fill:#E56951;" d="M864.625,760.745c-11.276-10.09-26.852-16.331-44.056-16.331c-14.878,0-28.503,4.719-39.186,12.524
		c-0.197,2.03-0.376,4.05-0.557,6.106c-1.97,11.119-1.705,27.328-0.042,42.704c1.663,15.8,5.095,30.379,8.747,37.626
		c0.814,2.144,1.686,4.233,2.59,6.289c8.516,3.969,18.175,6.264,28.448,6.264c17.205,0,32.781-6.241,44.056-16.331
		c11.276-10.091,18.249-24.03,18.249-39.425C882.874,784.775,875.9,770.836,864.625,760.745z"/>
	<path style="fill:#E6654F;" d="M858.611,766.127c-9.736-8.713-23.187-14.102-38.043-14.102c-12.995,0-24.884,4.172-34.146,11.056
		c-0.249,1.706-0.48,3.408-0.706,5.143c-2.138,9.506-2.263,23.255-0.932,36.41c1.33,13.683,4.579,26.284,8.304,32.73
		c0.794,1.831,1.646,3.609,2.531,5.351c7.44,3.549,15.92,5.603,24.949,5.603c14.856,0,28.307-5.39,38.043-14.102
		c9.736-8.712,15.758-20.749,15.758-34.043C874.37,786.877,868.347,774.84,858.611,766.127z"/>
	<path style="fill:#E7604D;" d="M852.597,771.509c-8.197-7.336-19.52-11.873-32.029-11.873c-11.112,0-21.265,3.624-29.106,9.589
		c-0.301,1.382-0.584,2.766-0.856,4.178c-2.305,7.894-2.793,19.182-1.822,30.116c1.027,11.564,4.065,22.19,7.862,27.835
		c0.776,1.519,1.607,2.985,2.473,4.412c6.364,3.129,13.664,4.942,21.45,4.942c12.508,0,23.832-4.537,32.029-11.872
		c8.197-7.336,13.269-17.469,13.269-28.662C865.865,788.978,860.794,778.844,852.597,771.509z"/>
	<path style="fill:#E85B4C;" d="M846.584,776.89c-6.659-5.958-15.856-9.644-26.016-9.644c-9.229,0-17.646,3.077-24.068,8.121
		c-0.353,1.057-0.685,2.123-1.005,3.214c-2.472,6.281-3.351,15.11-2.711,23.822c0.692,9.449,3.551,18.096,7.42,22.939
		c0.756,1.206,1.566,2.362,2.413,3.474c5.288,2.709,11.412,4.281,17.951,4.281c10.159,0,19.357-3.685,26.016-9.644
		c6.658-5.958,10.776-14.189,10.776-23.28C857.359,791.08,853.242,782.848,846.584,776.89z"/>
	<path style="fill:#E9564A;" d="M840.57,782.272c-5.12-4.581-12.191-7.415-20.002-7.415c-7.345,0-14.027,2.529-19.028,6.653
		c-0.406,0.733-0.789,1.48-1.154,2.249c-2.639,4.669-3.916,11.04-3.602,17.528c0.354,7.333,3.036,14.002,6.978,18.043
		c0.738,0.893,1.527,1.738,2.354,2.535c4.213,2.289,9.157,3.62,14.452,3.62c7.811,0,14.883-2.833,20.002-7.414
		c5.119-4.581,8.285-10.909,8.285-17.899C848.855,793.181,845.689,786.853,840.57,782.272z"/>
	<path style="fill:#EA5048;" d="M834.557,812.69c3.58-3.204,5.794-7.63,5.794-12.518c0-4.889-2.214-9.315-5.794-12.519
		c-3.581-3.204-8.526-5.185-13.989-5.185c-5.463,0-10.408,1.982-13.989,5.185c-3.58,3.204-5.793,7.63-5.793,12.519
		c0,9.776,8.857,17.703,19.783,17.703C826.031,817.875,830.976,815.894,834.557,812.69z"/>
	<path style="fill:#B84438;" d="M1044.928,841.413c-0.725-1.368-2.419-1.889-3.786-1.165c-0.841,0.447-1.745,0.882-2.697,1.307
		c-5.612-5.104-27.532-8.459-35.977-8.459c-7.169,0-13.308,2.847-16.054,6.919c-2.745-4.072-8.886-6.919-16.052-6.919
		c-9.721,0-37.323,4.442-37.323,10.882c0,0.412,0.275,0.839,0.693,1.273c-1.426-0.537-2.742-1.104-3.912-1.705
		c-1.379-0.704-3.065-0.157-3.769,1.22c-0.704,1.378-0.159,3.066,1.221,3.769h-0.002c0.913,0.466,1.951,0.87,2.958,1.29
		c7.518,9.26,25.181,28.961,51.59,29.03c32.613,0.086,48.963-21.333,54.244-30.376c2.785-1.006,5.42-2.075,7.702-3.28
		C1045.131,844.475,1045.652,842.78,1044.928,841.413z"/>
	<path style="fill:#E4605B;" d="M1241.099,1561.858c-39.292,0-71.144,31.852-71.144,71.143c0,39.292,31.852,71.143,71.144,71.143
		c39.29,0,71.142-31.851,71.142-71.143C1312.241,1593.71,1280.389,1561.858,1241.099,1561.858z"/>
	
		<ellipse transform="matrix(0.9996 -0.0281 0.0281 0.9996 -51.9303 25.4766)" style="fill:#E4605B;" cx="879.854" cy="1859.117" rx="71.142" ry="71.143"/>
	<path style="fill:#E4605B;" d="M820.862,1444.501c0-33.438-27.107-60.544-60.545-60.544c-33.437,0-60.544,27.106-60.544,60.544
		c0,33.438,27.107,60.544,60.544,60.544C793.756,1505.045,820.862,1477.939,820.862,1444.501z"/>
	<path style="fill:#E4605B;" d="M1233.147,1895.631c-39.292,0-71.144,31.852-71.144,71.143c0,39.292,31.852,71.143,71.144,71.143
		c39.29,0,71.142-31.851,71.142-71.143C1304.289,1927.483,1272.437,1895.631,1233.147,1895.631z"/>
	
		<ellipse transform="matrix(0.7071 -0.7071 0.7071 0.7071 -656.5901 1293.5405)" style="fill:#E4605B;" cx="1233.146" cy="1439.345" rx="45.633" ry="45.633"/>
	
		<ellipse transform="matrix(0.973 -0.2307 0.2307 0.973 -386.1094 310.1775)" style="fill:#E4605B;" cx="1133.597" cy="1806.507" rx="45.633" ry="45.633"/>
	
		<ellipse transform="matrix(0.9871 -0.1602 0.1602 0.9871 -317.9015 173.3323)" style="fill:#E4605B;" cx="916.16" cy="2058.482" rx="45.633" ry="45.633"/>
	
		<ellipse transform="matrix(0.9732 -0.2298 0.2298 0.9732 -371.2653 230.0381)" style="fill:#E4605B;" cx="802.212" cy="1709.33" rx="45.633" ry="45.633"/>
	
		<ellipse transform="matrix(0.7071 -0.7071 0.7071 0.7071 -854.7708 1075.2257)" style="fill:#E4605B;" cx="870.527" cy="1569.412" rx="45.633" ry="45.634"/>
	<circle style="fill:#E4605B;" cx="1096.63" cy="2069.257" r="45.633"/>
	<path style="fill:#E4605B;" d="M1389.739,1445.277c14.967,0,27.1-12.133,27.1-27.1c0-14.967-12.132-27.1-27.1-27.1
		c-14.967,0-27.1,12.133-27.1,27.1C1362.639,1433.144,1374.772,1445.277,1389.739,1445.277z"/>
	<circle style="fill:#E4605B;" cx="1285.019" cy="1806.506" r="27.1"/>
	<circle style="fill:#E4605B;" cx="1040.502" cy="1930.259" r="27.1"/>
	<path style="fill:#E4605B;" d="M766.213,2023.624c-14.966,0-27.1,12.133-27.1,27.1c0,14.967,12.134,27.1,27.1,27.1
		c14.968,0,27.1-12.133,27.1-27.1C793.314,2035.757,781.181,2023.624,766.213,2023.624z"/>
	<path style="fill:#E4605B;" d="M1060.863,1618.726c0,14.967,12.134,27.1,27.1,27.1c14.968,0,27.1-12.133,27.1-27.1
		c0-14.967-12.132-27.1-27.1-27.1C1072.997,1591.626,1060.863,1603.759,1060.863,1618.726z"/>
	
		<ellipse transform="matrix(0.2463 -0.9692 0.9692 0.2463 -1020.6281 1896.3842)" style="fill:#E4605B;" cx="709.019" cy="1604.433" rx="27.1" ry="27.1"/>
	<path style="fill:#E4605B;" d="M664.226,1307.974c0-14.967-12.132-27.1-27.1-27.1c-14.966,0-27.1,12.133-27.1,27.1
		c0,14.967,12.133,27.1,27.1,27.1C652.093,1335.075,664.226,1322.942,664.226,1307.974z"/>
	<path style="fill:#E4605B;" d="M606.71,1398.659c-10.78,0-19.518,8.738-19.518,19.518c0,10.78,8.739,19.518,19.518,19.518
		s19.518-8.739,19.518-19.518C626.228,1407.398,617.49,1398.659,606.71,1398.659z"/>
	<polygon style="fill:#AA201F;" points="1127.133,1491.814 1249.953,1251.497 1266.574,1218.974 1248.382,1247.724 
		987.694,1659.715 	"/>
	<polygon style="fill:#AA201F;" points="955.046,1584.51 1000.818,1607.967 704.85,1251.753 685.434,1228.387 704.474,1253.535 	"/>
	<path style="fill:#E4605B;" d="M756.578,1833.607c0-39.291-31.852-71.143-71.144-71.143c-13.951,0-26.947,4.008-37.928,10.948
		c-0.002,0-0.002,0.001-0.002,0.001s0.027,0.214,0.065,0.523c0.284,2.286,1.589,12.72,3.433,27.115
		c2.234,17.425,5.253,40.578,8.21,62.016c1.991,14.445,3.954,28.101,5.623,38.656c0.002,0,0.003,0.001,0.005,0.001
		c6.517,1.969,13.432,3.026,20.592,3.026C724.726,1904.75,756.578,1872.898,756.578,1833.607z"/>
	<path style="fill:#E4605B;" d="M1115.064,1417.799c0-13.423-5.795-25.492-15.02-33.842l-49.585,75.357
		c5.777,2.645,12.202,4.119,18.972,4.119C1094.633,1463.433,1115.064,1443.002,1115.064,1417.799z"/>
	<path style="fill:#E4605B;" d="M773.342,1300.998c9.891,0,19.047-3.147,26.52-8.493l-58.787-69.408
		c-8.258,8.258-13.366,19.667-13.366,32.268C727.709,1280.567,748.141,1300.998,773.342,1300.998z"/>
	<path style="fill:#E4605B;" d="M1281.89,1280.875c0,39.291,31.851,71.143,71.141,71.143c28.788,0,53.523-17.132,64.724-41.726
		c0.003-0.005,0.005-0.011,0.008-0.016c-0.146-0.412-0.292-0.784-0.438-1.191c-0.994-2.761-1.984-5.473-2.967-8.07
		c-0.051-0.134-0.102-0.271-0.152-0.405c-1.102-2.902-2.196-5.693-3.281-8.372c-0.075-0.184-0.15-0.365-0.224-0.548
		c-1.089-2.675-2.168-5.243-3.238-7.678c-0.029-0.066-0.058-0.128-0.086-0.193c-2.14-4.862-4.239-9.206-6.289-13.02
		c-0.116-0.218-0.234-0.443-0.352-0.658c-0.946-1.735-1.882-3.339-2.805-4.831c-0.154-0.25-0.309-0.494-0.464-0.737
		c-0.913-1.438-1.816-2.766-2.705-3.951c-0.127-0.17-0.251-0.32-0.379-0.484c-0.925-1.201-1.841-2.297-2.739-3.208
		c-1.785-1.811-3.763-3.567-5.821-5.296c-0.505-0.425-1.017-0.847-1.538-1.267c-2.103-1.696-4.287-3.365-6.623-4.981
		c-0.043-0.031-0.092-0.059-0.136-0.09c-2.324-1.603-4.785-3.154-7.307-4.678c-0.615-0.371-1.23-0.741-1.855-1.107
		c-2.59-1.52-5.243-3.013-7.999-4.454c-0.083-0.043-0.17-0.084-0.252-0.128c-2.718-1.415-5.525-2.781-8.374-4.12
		c-0.67-0.315-1.339-0.629-2.015-0.939c-2.943-1.352-5.924-2.677-8.965-3.949c-0.075-0.031-0.151-0.06-0.225-0.091
		c-3.011-1.257-6.071-2.465-9.148-3.645c-0.661-0.253-1.317-0.505-1.979-0.755c-3.153-1.188-6.325-2.348-9.508-3.456
		c-0.012-0.004-0.025-0.009-0.037-0.013c0,0-0.001,0-0.001,0.001C1297.287,1229.888,1281.89,1253.57,1281.89,1280.875z"/>
	<path style="fill:#0E0304;" d="M1123.158,1107.304c3.418-1.182,2.617-5.902,3.901-9.202c1.115-2.864,3.211-5.039,5.732-5.611
		c4.236-0.965,8.12,1.826,12.335,0.468c5.997-1.931,9.044-4.984,10.324-12.628c0.752-4.49,1.098-7.277,4.863-8.799
		c3.76-1.522,7.971-1.667,11.845-2.933c4.302-1.406,6.628-5.286,10.273-7.789c1.748-1.202,2.753-1.15,4.713-1.129
		c3.256,0.037,6.17-0.804,9.36-1.509c6.749-1.489,8.029-4.803,9.038-12.811c0.413-3.276,0.401-6.321,0.64-9.557
		c0.213-2.886,1.093-3.689,2.766-5.697c3.066-3.68,7.063-6.375,10.557-9.456c5.698-5.024,13.768-7.736,13.889-17.936
		c0.047-3.951-1.636-12.154,0.971-14.973c3.83-4.141,10.139-4.423,14.314-8.362c2.48-2.339,3.806-4.708,4.785-8.31
		c0.831-3.051,0.416-6.003,1.06-9.008c1.289-6.017,7.434-6.543,10.942-9.79c5.146-4.764,3.061-13.353,2.884-19.98
		c-0.179-6.686-0.114-13.164,1.23-19.67c1.368-6.62,3.604-12.564,3.853-19.529c0.239-6.689-1.548-13.314-1.162-19.883
		c0.406-6.89,6.459-11.097,8.977-16.944c3.282-7.624,4.4-16.966,2.004-25.151c-1.585-5.413-5.267-10.551-4.946-16.576
		c0.412-7.704,4.755-14.954,5.897-22.601c1.158-7.756,1.482-13.921-1.749-21.1c-1.142-2.536-3.132-5.007-4.564-7.669
		c-2.144-0.268-4.265-0.782-6.428-1.23c-5.814-1.206-12.891,1.214-17.688-3.208c-1.363-1.257-2.156-3.326-3.832-4.266
		c-1.837-1.029-3.797-0.554-5.756-0.171c-7.761,24.422-27.396,36.718-47.84,35.392c-1.669-0.108-3.319-0.407-4.952-0.814
		c-0.624,7.1-1.378,14.288-2.248,21.339c-0.184,1.494-0.384,2.953-0.577,4.431c-0.141,1.131-0.293,2.253-0.441,3.379
		c-0.299,2.204-0.61,4.355-0.924,6.5c-0.362,2.481-0.729,4.957-1.129,7.408c-2.434,15.291-5.125,28.281-7.443,35.489
		c0,0.001,0,0.001-0.001,0.002c-0.859,3.283-1.79,6.504-2.733,9.713c-0.033,0.109-0.062,0.22-0.093,0.329c0,0,0,0-0.001,0
		c-13.514,45.747-35.746,83.833-68.777,110.172c-8.698,51.252-5.381,95.589-1.423,122.478c1.39-1.521,2.949-2.599,5.192-3.273
		C1114.815,1105.633,1119.116,1108.703,1123.158,1107.304z"/>
	<path style="fill:#0E0304;" d="M692.905,735.257c0.082,1.473,0.153,2.888,0.154,4.123c0.001,3.618-0.189,7.305-0.052,10.917
		c0.089,2.393,1.469,5.952,1.176,8.262c-0.579,4.58-4.412,8.348-6.182,12.28c-3.233,7.179-2.907,13.344-1.75,21.1
		c1.141,7.647,5.483,14.898,5.896,22.601c0.322,6.024-3.361,11.163-4.945,16.576c-2.396,8.185-1.28,17.526,2.004,25.151
		c2.517,5.847,8.571,10.054,8.977,16.944c0.386,6.569-1.4,13.193-1.162,19.883c0.248,6.965,2.486,12.91,3.853,19.529
		c1.344,6.506,1.41,12.984,1.231,19.67c-0.178,6.627-2.265,15.216,2.882,19.98c3.508,3.248,9.653,3.773,10.942,9.79
		c0.644,3.004,0.229,5.957,1.058,9.008c0.98,3.602,2.307,5.972,4.785,8.31c4.175,3.939,10.486,4.221,14.314,8.362
		c2.608,2.819,0.925,11.022,0.972,14.973c0.121,10.199,8.19,12.912,13.89,17.936c3.495,3.081,7.493,5.776,10.556,9.456
		c1.672,2.008,2.554,2.811,2.767,5.697c0.238,3.236,0.225,6.281,0.64,9.557c1.01,8.008,2.288,11.323,9.036,12.811
		c3.191,0.704,6.107,1.546,9.36,1.509c1.961-0.021,2.964-0.073,4.713,1.129c3.645,2.504,5.974,6.384,10.275,7.789
		c3.872,1.265,8.083,1.411,11.843,2.933c3.764,1.522,4.112,4.309,4.863,8.799c1.281,7.644,4.325,10.697,10.326,12.628
		c4.214,1.358,8.097-1.432,12.334-0.468c2.521,0.572,4.617,2.748,5.732,5.611c1.285,3.3,0.484,8.02,3.902,9.202
		c4.044,1.399,8.344-1.671,12.364-0.464c2.665,0.801,4.391,2.104,5.978,4.147c5.453-27.474,8.528-68.49-4.313-115.724
		c-59.732-38.866-93.764-111.299-99.326-208.207c-3.289,1.453-6.713,2.405-10.204,2.63c-22.902,1.486-44.831-14.076-50.139-44.683
		c-0.644-3.708-1.079-7.299-1.391-10.804c-1.351,0.026-2.684,0.1-3.951,0.355C695.169,734.784,694.036,735.028,692.905,735.257z"/>
	<path style="fill:#9C3B2F;" d="M977.769,856.76c-10.055-0.001-19.86-0.643-28.549-1.978c-7.298-1.128-13.723-2.758-18.991-4.958
		c7.518,9.26,25.181,28.961,51.59,29.03c32.613,0.086,48.963-21.333,54.244-30.376c-6.199,2.239-13.451,4.033-21.42,5.368
		C1003.1,855.771,990.245,856.759,977.769,856.76z"/>
</g>
</svg>
